<svg width="209pt" height="208pt" viewBox="0 0 209 208" xmlns="http://www.w3.org/2000/svg"><g id="#d41443ff" fill="#d41443"><path d="M96.51 0h11.65c47.81 3.33 90.6 42.4 97.93 89.81 4.06 24.39-3.1 49.54-16.15 70.16-10.39 16.29-24.94 30.77-43.24 37.74-1.87.77-6.86 1.83-5.76-1.68 4.82-9.52 16.45-13.19 21.31-22.76 4.04-7.84 2.01-16.92 3.28-25.32.78-5.44 2-11.32 6.16-15.26 5.69-5.56 7.06-14.62 4.49-21.97-1.25-4.02-5.3-6.17-6.9-9.97-2.66-5.56-3.21-11.75-3.88-17.78-2.5-15.07-12.45-27.93-24.48-36.87-11.69-8.57-26.28-13.8-40.88-12.57-15.86 1.43-30.76 9.4-41.63 20.9-8.24 8.56-14.37 19.63-15.44 31.6-.72 6.96-1.93 14.65-7.2 19.74-5.39 5.47-5.38 14.33-2.69 21.1 1.69 4.73 6.73 7.28 8.07 12.21 3.98 9.81 1.31 20.65 3.93 30.69 2.83 9.68 12.56 14.3 19.14 21.06 1.63 1.95 4.11 4.15 3.4 6.98-1.15 1.16-3.01.67-4.46.57-6.08-1.34-11.54-4.53-16.82-7.71-20.4-12.51-35.54-32.99-42.15-55.93C1.89 127.01.67 119.02 0 111V96.85C1.04 82.43 4.61 68.1 11.38 55.27c10.29-19.9 27.79-35.59 48.01-44.98C71.05 4.79 83.58.83 96.51 0Z"/><path d="M75.39 55.43c7.92-4.54 16.61-7.71 25.56-9.48 3.71-.88 7.51.1 11.12 1 8.1 2.27 16.03 5.38 23.21 9.8 1.89 1.31 4.16 2.61 4.85 4.97-.14 2.52-2.85 3.67-4.7 4.87-7.35 3.89-15.43 6.32-23.61 7.74-10.44 1.94-21.04-.79-30.84-4.29-4.6-1.93-9.92-3.53-12.76-7.97 1.44-3.08 4.33-4.99 7.17-6.64ZM58.53 77.37c5.13-.64 10.06 1.34 14.62 3.46 9.5 4.82 20.35 5.83 30.84 6.16 9.34-.19 18.87-1.02 27.67-4.38 5.06-1.97 9.82-5.4 15.44-5.38 3.28.07 4.87 3.45 5.16 6.28.45 4.11 1.12 8.49-.32 12.47-2.05 2.67-5.72 2.88-8.8 3.3-12.69.98-25.44.67-38.16.72-13.48-.09-27.01.36-40.45-.84-3.14-.44-7.84-1.08-8.28-5.01-.66-5.64-.01-11.55 2.28-16.78ZM48.09 114.04c4.57-.95 9.26-.94 13.9-1.23 27.03-.37 54.08.24 81.03 2.43 6.11.62 12.34.93 18.23 2.83-.29 1.29-1.11 2.32-2.38 2.75-6.88 3.11-14.57 3.15-21.93 4.06-3.13.44-7.01 1.18-8.34 4.48-2.48 7.68.67 16.49-3.58 23.72-1.14 1.95-3.61.72-4.01-1.12-3.37-8.58-1.55-17.99-2.01-26.96-13.99-.02-27.98.03-41.98-.02-8.71-.37-17.53-.28-26.08-2.19-2.39-.67-5.26-1.33-6.44-3.79-.21-2.18 1.38-4.58 3.59-4.96Z"/><path d="M56.02 137.24c11.24.09 22.49-.12 33.73.1 3.67.35 7.97.23 10.78 3.02 3.19 4.13 2.47 9.8 4.71 14.36 2.81 6.5 9.54 11.1 16.66 11.07 7.2.34 14.27-4.31 16.7-11.11 2.11-4.77.23-10.49 3.1-14.99 1.68-2.82 6.28-3.5 8.38-.79 2.61 3.4 2.41 8.03 2.68 12.1-.13 6.11-.25 12.71-3.66 18.02-3.22 4.95-9.14 7.02-14.65 8.15-9.36 1.77-18.93 1.92-28.42 1.83-12.07-.05-24.43.42-36.14-2.98-5.64-1.51-10.73-5.63-12.31-11.4-2.54-8.89-1.28-18.27-1.56-27.38ZM89.48 191.84c7.17-.51 14.38-.71 21.56-.36 4.76.25 9.8.16 14.17 2.33 3.38 1.65 2.79 6.46.25 8.6-4.47 3.95-10.66 4.88-16.37 5.59h-9.34c-5.18-.66-10.7-1.52-14.92-4.87-2.34-1.83-3.68-5.18-2.76-8.06 1.37-2.7 4.79-2.82 7.41-3.23Z"/></g></svg>