<svg width="800" height="800" viewBox="0 0 600 600" xmlns="http://www.w3.org/2000/svg"><path fill="#f6bad4" d="M263.94 9.08c25.5-8.83 53.91-9.82 79.67-1.48 23.25 7.47 44.15 23.05 56.63 44.19 14.07 23.24 16.57 52.56 8.22 78.25-.87 1.88-.66 4.9 1.53 5.77 7.81 3.6 14.1 10.67 15.98 19.15 2.8 11.19-2.23 23.25-10.86 30.53-12.04 10.77-31.56 12.97-44.86 3.26-4.92-3.37-7.88-8.67-10.57-13.82-7.2 17.66-29.18 27.61-47.07 20.62-8.75-3.16-15.48-10.62-18.2-19.46-6.34 18.8-29.3 29.47-47.76 22.21-8.21-2.97-14.44-9.75-17.71-17.74-3.6 7.4-9.01 14.06-16.37 17.96-9.51 5.32-21.33 6.38-31.55 2.49-6.89-2.89-12.92-8.17-15.91-15.11-3.57-7.85-2.86-17.23 1.06-24.82 3.8-7.59 10.55-13.35 18.18-16.88-.47-4.14-1.74-8.12-2.31-12.24-3.51-21.73.9-44.39 11.26-63.72 14.92-27.76 40.99-48.85 70.64-59.16Z"/><path d="M359.68 174.93c2.69 5.15 5.65 10.45 10.57 13.82 13.3 9.71 32.82 7.51 44.86-3.26.74 1.94 1.39 4.15 3.51 5.03 10.81 6.29 18.22 18.98 16.27 31.64-1.2 8.91-7.29 16.68-15.18 20.78-10.27 5.18-22.88 4.71-32.99-.63-7.07-3.52-12.4-9.58-16.26-16.36-2.09 6.38-5.77 12.35-11.45 16.11-11.24 7.77-26.87 7.49-38.36.4-6.46-3.61-11.03-9.62-14.64-15.93-1.98 4.63-3.89 9.46-7.44 13.13-4.14 4.38-9.76 6.97-15.46 8.64 2.28 1.5 5.25 2.81 5.89 5.77.76 3.06.82 6.48-.53 9.39-3.08 5.65-12.76 5.45-15.47-.46-1.89-4.67-.65-10.11 2.76-13.75-8.09-.24-16.25-2.42-22.78-7.33-4.9-3.33-8.27-8.26-11.48-13.11-2.44 6.47-6.2 12.78-12.28 16.41-10.26 6.68-23.84 6.59-34.73 1.48-9.57-4.8-17.43-13.77-19.17-24.53-1.43-7.46.72-15.24 5.05-21.38l.65.22c10.22 3.89 22.04 2.83 31.55-2.49 7.36-3.9 12.77-10.56 16.37-17.96 3.27 7.99 9.5 14.77 17.71 17.74 18.46 7.26 41.42-3.41 47.76-22.21 2.72 8.84 9.45 16.3 18.2 19.46 17.89 6.99 39.87-2.96 47.07-20.62Zm-5.37 91.45c7.16-1.54 12.06 7.43 9.58 13.51-1.14 4.85-6.97 8.04-11.53 5.61-7.32-4.03-6.54-17.05 1.95-19.12Zm-154.01 1.18c3.92.09 7.83.75 11.68 1.45 6 .86 5.51 10.5 1.01 12.94-4.32.75-8.74-.47-13.03-1.07-6.7-.72-6.02-12.65.34-13.32Z" fill="#f181b2"/><path fill="#ee569e" d="M370.46 225.95c3.86 6.78 9.19 12.84 16.26 16.36 10.11 5.34 22.72 5.81 32.99.63-.78 2.94-1.63 5.86-2.5 8.78 6.71 2.74 12.82 7.3 16.56 13.6 5.66 9.01 5.51 21.25-.47 30.07-8.23 12.71-25.33 17.98-39.57 13.56-9.98-2.73-18.3-10.28-22.05-19.91-1.95 4.85-4.92 9.22-8.64 12.89-1.11.91-2.21 1.84-3.3 2.78-7.24 3.82-15.37 6.56-23.66 5.63-6.08-.55-11.98-2.67-17.09-6.01-5.85-3.97-10.12-9.92-12.46-16.56-1.09 2.71-2.22 5.43-3.76 7.92-5.71 8.42-15.35 13.53-25.34 14.7-5.17.38-10.4-.26-15.35-1.81-7.86-2.67-14.83-8.11-18.77-15.48-.67-1.37-1.27-2.76-1.86-4.15-4.16 10.76-14.42 19.93-26.3 20.26l.38.79c-7.6 1.12-15.56.27-22.49-3.14-8.05-3.86-14.67-11.06-16.92-19.8-2.42-8.91.07-18.88 6.16-25.78 3.62-4.31 8.47-7.39 13.62-9.55-.48-1.68-.96-3.35-1.41-5.03 10.89 5.11 24.47 5.2 34.73-1.48 6.08-3.63 9.84-9.94 12.28-16.41 3.21 4.85 6.58 9.78 11.48 13.11 6.53 4.91 14.69 7.09 22.78 7.33-3.41 3.64-4.65 9.08-2.76 13.75 2.71 5.91 12.39 6.11 15.47.46 1.35-2.91 1.29-6.33.53-9.39-.64-2.96-3.61-4.27-5.89-5.77 5.7-1.67 11.32-4.26 15.46-8.64 3.55-3.67 5.46-8.5 7.44-13.13 3.61 6.31 8.18 12.32 14.64 15.93 11.49 7.09 27.12 7.37 38.36-.4 5.68-3.76 9.36-9.73 11.45-16.11m-16.15 40.43c-8.49 2.07-9.27 15.09-1.95 19.12 4.56 2.43 10.39-.76 11.53-5.61 2.48-6.08-2.42-15.05-9.58-13.51m-154.01 1.18c-6.36.67-7.04 12.6-.34 13.32 4.29.6 8.71 1.82 13.03 1.07 4.5-2.44 4.99-12.08-1.01-12.94-3.85-.7-7.76-1.36-11.68-1.45Z"/><path opacity=".68" d="M306.53 287.77c2.34 6.64 6.61 12.59 12.46 16.56-1.29 1.2-2.58 2.4-3.87 3.61-4.13-4.07-8.23-8.17-12.35-12.25 1.54-2.49 2.67-5.21 3.76-7.92Zm-65.08 1.18c.59 1.39 1.19 2.78 1.86 4.15-6.86 7.24-13.49 14.67-20.34 21.92-1.81-1.76-3.53-3.6-5.09-5.59-.4.68-.79 1.37-1.17 2.07l-.27.25c-.22-.44-.68-1.31-.91-1.75l-.38-.79c11.88-.33 22.14-9.5 26.3-20.26Zm121.59 12.98c.42-.3 1.26-.91 1.68-1.21 7.96 8.09 15.92 16.19 23.94 24.22-1.33 4.71-3.35 9.28-3.73 14.2l-.35.09c-1.4.12-2.55.94-3.51 1.9-5.52 5.32-10.84 10.85-16.55 15.96-9.43-9.73-19.34-18.99-28.7-28.79 7.97-7.86 16.32-15.36 23.92-23.59 1.09-.94 2.19-1.87 3.3-2.78Zm-123.68 28.73c7.39-7.55 15.1-14.78 22.72-22.08 4.95 1.55 10.18 2.19 15.35 1.81 5.9 5.73 12.02 11.24 17.79 17.11-9.77 9.46-19.45 19.01-29.2 28.48-8.93-8.4-17.69-16.97-26.66-25.32Zm47.56 45.3c9.63-9.65 19.54-19.02 29.28-28.56 9.95 9.28 19.76 18.73 29.61 28.12-9.2 8.91-18.4 17.82-27.53 26.81-.74.46-1.67 2.19-2.59 1.03-9.66-9.05-19.16-18.28-28.77-27.4Zm-57.38-23.53c6.92 6.28 13.39 13.03 20.01 19.61-3.57 3.59-7.3 7.03-10.7 10.79-3.19-10.1-6.48-20.18-9.31-30.4Zm18.69 60.92c7.33-6.94 14.47-14.08 21.77-21.05 9.69 9.54 19.33 19.13 28.96 28.73-9.29 9.09-18.61 18.16-27.96 27.2-5.26-4.7-10.22-9.72-15.58-14.29.04.59.13 1.78.18 2.38-2.91-7.5-4.89-15.33-7.37-22.97Zm85.87 7.61c9.88-9.44 19.6-19.06 29.64-28.35 1.15 1.04 2.3 2.08 3.46 3.12-4.65 14.96-9.16 29.96-13.65 44.97-.76-1.56-1.78-2.98-3.06-4.14-5.52-5.14-10.97-10.36-16.39-15.6Zm-17.86 17.19c9.65 9.64 19.45 19.14 29 28.89-7.35 6.35-14.13 13.33-21.23 19.95-1.96 1.67-3.53 4.01-5.93 5.02-9.91-9.03-19.86-18.06-29.35-27.52 9.25-8.7 18.3-17.61 27.51-26.34Zm-46.4 44.67c9.87 9.18 19.51 18.6 29.22 27.96-5.19 5.09-10.65 9.91-15.72 15.13.09.51.26 1.54.34 2.05-4.59-15.05-9.46-30.03-13.84-45.14Zm46.61 45.25c3.28 1.77 5.53 4.92 8.3 7.35-4.46 14.72-8.89 29.44-13.41 44.14-5.14-5.06-10.42-9.99-15.98-14.57-2.09-4.74-2.96-9.95-5.03-14.72 1.15-.43 2.4-.7 3.33-1.55 7.65-6.81 14.97-14.03 22.79-20.65Z" fill="#a87430"/><path d="M371.68 289.04c3.75 9.63 12.07 17.18 22.05 19.91-1.66 5.34-3.29 10.69-5.07 15.99-8.02-8.03-15.98-16.13-23.94-24.22-.42.3-1.26.91-1.68 1.21 3.72-3.67 6.69-8.04 8.64-12.89Zm-148.71 25.98c6.85-7.25 13.48-14.68 20.34-21.92 3.94 7.37 10.91 12.81 18.77 15.48-7.62 7.3-15.33 14.53-22.72 22.08 8.97 8.35 17.73 16.92 26.66 25.32 9.75-9.47 19.43-19.02 29.2-28.48-5.77-5.87-11.89-11.38-17.79-17.11 9.99-1.17 19.63-6.28 25.34-14.7 4.12 4.08 8.22 8.18 12.35 12.25 1.29-1.21 2.58-2.41 3.87-3.61 5.11 3.34 11.01 5.46 17.09 6.01 8.29.93 16.42-1.81 23.66-5.63-7.6 8.23-15.95 15.73-23.92 23.59 9.36 9.8 19.27 19.06 28.7 28.79 5.71-5.11 11.03-10.64 16.55-15.96.96-.96 2.11-1.78 3.51-1.9-5.93 18.79-11.41 37.72-17.38 56.5-1.16-1.04-2.31-2.08-3.46-3.12-10.04 9.29-19.76 18.91-29.64 28.35 5.42 5.24 10.87 10.46 16.39 15.6 1.28 1.16 2.3 2.58 3.06 4.14-3.26 9.9-5.62 20.1-9.3 29.86-6.4 21.66-12.79 43.3-19.5 64.86-2.77-2.43-5.02-5.58-8.3-7.35-7.82 6.62-15.14 13.84-22.79 20.65-.93.85-2.18 1.12-3.33 1.55-2.39-7.38-4.46-14.87-6.65-22.31-.08-.51-.25-1.54-.34-2.05 5.07-5.22 10.53-10.04 15.72-15.13-9.71-9.36-19.35-18.78-29.22-27.96-5.29-15.26-9.47-31.03-14.24-46.5-.05-.6-.14-1.79-.18-2.38 5.36 4.57 10.32 9.59 15.58 14.29 9.35-9.04 18.67-18.11 27.96-27.2-9.63-9.6-19.27-19.19-28.96-28.73-7.3 6.97-14.44 14.11-21.77 21.05-3.17-10.16-6.11-20.39-9.38-30.52 3.4-3.76 7.13-7.2 10.7-10.79-6.62-6.58-13.09-13.33-20.01-19.61-4.93-13.4-8.57-27.34-12.83-40.93.38-.7.77-1.39 1.17-2.07 1.56 1.99 3.28 3.83 5.09 5.59m63.95 60.94c9.61 9.12 19.11 18.35 28.77 27.4.92 1.16 1.85-.57 2.59-1.03 9.13-8.99 18.33-17.9 27.53-26.81-9.85-9.39-19.66-18.84-29.61-28.12-9.74 9.54-19.65 18.91-29.28 28.56m29.32 62.19c-9.21 8.73-18.26 17.64-27.51 26.34 9.49 9.46 19.44 18.49 29.35 27.52 2.4-1.01 3.97-3.35 5.93-5.02 7.1-6.62 13.88-13.6 21.23-19.95-9.55-9.75-19.35-19.25-29-28.89Zm-20.88 126.84c5.56 4.58 10.84 9.51 15.98 14.57-2.04 6.28-3.16 12.84-5.43 19.05-3.86-11.09-7.1-22.4-10.55-33.62Z" fill="#f8ad48"/></svg>