<?xml version="1.0" encoding="UTF-8" ?>
<!DOCTYPE svg PUBLIC "-//W3C//DTD SVG 1.1//EN" "http://www.w3.org/Graphics/SVG/1.1/DTD/svg11.dtd">
<svg width="209pt" height="208pt" viewBox="0 0 209 208" version="1.1" xmlns="http://www.w3.org/2000/svg">
<g id="#ffffffff">
</g>
<g id="#d41443ff">
<path fill="#d41443" opacity="1.00" d=" M 96.51 0.00 L 108.16 0.00 C 155.97 3.33 198.76 42.40 206.09 89.81 C 210.15 114.20 202.99 139.35 189.94 159.97 C 179.55 176.26 165.00 190.74 146.70 197.71 C 144.83 198.48 139.84 199.54 140.94 196.03 C 145.76 186.51 157.39 182.84 162.25 173.27 C 166.29 165.43 164.26 156.35 165.53 147.95 C 166.31 142.51 167.53 136.63 171.69 132.69 C 177.38 127.13 178.75 118.07 176.18 110.72 C 174.93 106.70 170.88 104.55 169.28 100.75 C 166.62 95.19 166.07 89.00 165.40 82.97 C 162.90 67.90 152.95 55.04 140.92 46.10 C 129.23 37.53 114.64 32.30 100.04 33.53 C 84.18 34.96 69.28 42.93 58.41 54.43 C 50.17 62.99 44.04 74.06 42.97 86.03 C 42.25 92.99 41.04 100.68 35.77 105.77 C 30.38 111.24 30.39 120.10 33.08 126.87 C 34.77 131.60 39.81 134.15 41.15 139.08 C 45.13 148.89 42.46 159.73 45.08 169.77 C 47.91 179.45 57.64 184.07 64.22 190.83 C 65.85 192.78 68.33 194.98 67.62 197.81 C 66.47 198.97 64.61 198.48 63.16 198.38 C 57.08 197.04 51.62 193.85 46.34 190.67 C 25.94 178.16 10.80 157.68 4.19 134.74 C 1.89 127.01 0.67 119.02 0.00 111.00 L 0.00 96.85 C 1.04 82.43 4.61 68.10 11.38 55.27 C 21.67 35.37 39.17 19.68 59.39 10.29 C 71.05 4.79 83.58 0.83 96.51 0.00 Z" />
<path fill="#d41443" opacity="1.00" d=" M 75.39 55.43 C 83.31 50.89 92.00 47.72 100.95 45.95 C 104.66 45.07 108.46 46.05 112.07 46.95 C 120.17 49.22 128.10 52.33 135.28 56.75 C 137.17 58.06 139.44 59.36 140.13 61.72 C 139.99 64.24 137.28 65.39 135.43 66.59 C 128.08 70.48 120.00 72.91 111.82 74.33 C 101.38 76.27 90.78 73.54 80.98 70.04 C 76.38 68.11 71.06 66.51 68.22 62.07 C 69.66 58.99 72.55 57.08 75.39 55.43 Z" />
<path fill="#d41443" opacity="1.00" d=" M 58.53 77.37 C 63.66 76.73 68.59 78.71 73.15 80.83 C 82.65 85.65 93.50 86.66 103.99 86.99 C 113.33 86.80 122.86 85.97 131.66 82.61 C 136.72 80.64 141.48 77.21 147.10 77.23 C 150.38 77.30 151.97 80.68 152.26 83.51 C 152.71 87.62 153.38 92.00 151.94 95.98 C 149.89 98.65 146.22 98.86 143.14 99.28 C 130.45 100.26 117.70 99.95 104.98 100.00 C 91.50 99.91 77.97 100.36 64.53 99.16 C 61.39 98.72 56.69 98.08 56.25 94.15 C 55.59 88.51 56.24 82.60 58.53 77.37 Z" />
<path fill="#d41443" opacity="1.00" d=" M 48.09 114.04 C 52.66 113.09 57.35 113.10 61.99 112.81 C 89.02 112.44 116.07 113.05 143.02 115.24 C 149.13 115.86 155.36 116.17 161.25 118.07 C 160.96 119.36 160.14 120.39 158.87 120.82 C 151.99 123.93 144.30 123.97 136.94 124.88 C 133.81 125.32 129.93 126.06 128.60 129.36 C 126.12 137.04 129.27 145.85 125.02 153.08 C 123.88 155.03 121.41 153.80 121.01 151.96 C 117.64 143.38 119.46 133.97 119.00 125.00 C 105.01 124.98 91.02 125.03 77.02 124.98 C 68.31 124.61 59.49 124.70 50.94 122.79 C 48.55 122.12 45.68 121.46 44.50 119.00 C 44.29 116.82 45.88 114.42 48.09 114.04 Z" />
<path fill="#d41443" opacity="1.00" d=" M 56.02 137.24 C 67.26 137.33 78.51 137.12 89.75 137.34 C 93.42 137.69 97.72 137.57 100.53 140.36 C 103.72 144.49 103.00 150.16 105.24 154.72 C 108.05 161.22 114.78 165.82 121.90 165.79 C 129.10 166.13 136.17 161.48 138.60 154.68 C 140.71 149.91 138.83 144.19 141.70 139.69 C 143.38 136.87 147.98 136.19 150.08 138.90 C 152.69 142.30 152.49 146.93 152.76 151.00 C 152.63 157.11 152.51 163.71 149.10 169.02 C 145.88 173.97 139.96 176.04 134.45 177.17 C 125.09 178.94 115.52 179.09 106.03 179.00 C 93.96 178.95 81.60 179.42 69.89 176.02 C 64.25 174.51 59.16 170.39 57.58 164.62 C 55.04 155.73 56.30 146.35 56.02 137.24 Z" />
<path fill="#d41443" opacity="1.00" d=" M 89.48 191.84 C 96.65 191.33 103.86 191.13 111.04 191.48 C 115.80 191.73 120.84 191.64 125.21 193.81 C 128.59 195.46 128.00 200.27 125.46 202.41 C 120.99 206.36 114.80 207.29 109.09 208.00 L 99.75 208.00 C 94.57 207.34 89.05 206.48 84.83 203.13 C 82.49 201.30 81.15 197.95 82.07 195.07 C 83.44 192.37 86.86 192.25 89.48 191.84 Z" />
</g>
</svg>
