<?xml version="1.0" encoding="UTF-8" ?>
<!DOCTYPE svg PUBLIC "-//W3C//DTD SVG 1.1//EN" "http://www.w3.org/Graphics/SVG/1.1/DTD/svg11.dtd">
<svg width="604pt" height="983pt" viewBox="0 0 604 983" version="1.1" xmlns="http://www.w3.org/2000/svg">
<g id="#000000ff">
<path fill="#000000" opacity="1.00" d=" M 121.98 0.00 L 135.26 0.00 C 140.38 2.33 146.13 3.05 150.97 6.05 C 159.92 10.72 166.05 18.96 173.09 25.90 C 307.75 167.57 442.44 309.20 577.09 450.87 C 583.03 456.86 588.06 463.90 590.82 471.94 C 597.53 490.36 593.19 512.35 579.56 526.54 C 447.47 665.49 315.38 804.45 183.26 943.37 C 175.89 951.30 168.36 959.08 160.78 966.81 C 146.94 980.37 124.45 983.74 107.27 974.75 C 99.49 970.97 93.45 964.63 87.77 958.27 C 69.66 939.40 51.76 920.35 33.66 901.47 C 28.39 895.41 22.08 890.18 17.91 883.23 C 6.53 865.08 7.58 839.91 20.90 823.04 C 27.65 814.80 35.52 807.58 42.68 799.71 C 140.72 696.43 238.94 593.33 336.92 489.99 C 232.92 380.36 128.71 270.92 24.66 161.33 C 15.38 151.68 9.93 138.36 10.14 124.94 C 9.83 111.53 15.05 98.06 24.37 88.40 C 45.93 65.63 67.56 42.92 89.18 20.21 C 94.50 14.13 100.53 8.47 107.89 4.97 C 112.35 2.69 117.36 1.87 121.98 0.00 Z" />
</g>
</svg>
